<?xml version="1.0" encoding="utf-8"?>
<!-- Generator: Adobe Illustrator 22.0.0, SVG Export Plug-In . SVG Version: 6.00 Build 0)  -->
<svg version="1.1" id="Слой_1" xmlns="http://www.w3.org/2000/svg" xmlns:xlink="http://www.w3.org/1999/xlink" x="0px" y="0px"
	 viewBox="0 0 1066.3 193.8" style="enable-background:new 0 0 1066.3 193.8;" xml:space="preserve">
<style type="text/css">
	.st0{fill:#1C69D4;}
	.st1{fill:#FFFFFF;}
	.st2{fill:url(#SVGID_1_);}
	.st3{fill:url(#SVGID_2_);}
	.st4{fill:url(#SVGID_3_);}
	.st5{fill:url(#SVGID_4_);}
	.st6{fill:url(#SVGID_5_);}
	.st7{fill:url(#SVGID_6_);}
	.st8{fill:url(#SVGID_7_);}
	.st9{fill:url(#SVGID_8_);}
	.st10{fill:url(#SVGID_9_);}
	.st11{fill:url(#SVGID_10_);}
	.st12{fill:url(#SVGID_11_);}
	.st13{fill:url(#SVGID_12_);}
	.st14{fill:url(#SVGID_13_);}
	.st15{fill:url(#SVGID_14_);}
</style>
<g>
	<g>
		<path class="st0" d="M351.4,68.1l-30.8,75.8h-22.2l15.2-37.5L289,130.8c-1,1-1.7,1.2-3,1c-1-0.2-1.7-1-1.7-2l-5.5-23.1l-15.1,37.4
			h-22.4l30.8-75.8h12.7c1.7,0,3.2,0.5,4.2,1.5s1.7,2.5,2.2,4l6.7,24.1L325,72.1c1-1,2.2-1.7,3.7-2.5c1.5-0.7,3-1.2,4.2-1.2h18.5
			V68.1z"/>
		<path class="st0" d="M392.6,66.8c4.7,0,8.4,0.7,11.7,2c3.2,1.5,5.7,3.5,7.2,6c1.7,2.7,2.5,6,2.5,9.9s-1,8.2-3,13.2
			c-1.7,4.7-3.5,9.2-5.2,13.4c-1.7,4.2-3.5,8.2-5.2,12.2c-2,4.7-3.7,8.4-5.7,11.2c-2,2.7-4,5-6.2,6.5s-4.7,2.5-7.5,3
			c-2.7,0.5-6,0.7-9.7,0.7h-10.4c-3,0-5.7-0.5-8.4-1.2c-2.7-0.7-5-2.2-6.5-4.5c-1.7-2-2.5-4.7-2.7-8.2s0.7-7.7,2.7-12.7l4-9.7
			c1.2-3,2.5-6,3.7-9.4c1.5-3.5,2.7-7,4.2-10.2c1.2-3.2,3-6.2,5-8.9s4.2-5,6.7-7s5.5-3.5,8.4-4.5c3-1,6.5-1.5,10.2-1.5h4.2V66.8z
			 M389.6,90.2c0.5-1.2,0.5-2.2,0-3.2s-1.5-1.2-2.7-1.2c-1.7,0-3,0.2-3.7,1c-0.7,0.7-1.5,2-2.2,3.7l-12.9,32.1c-1,2.7-1.2,4.2-1,5
			c0.5,0.7,1.2,1.2,2.7,1.2s2.7-0.2,3.7-1s1.7-1.7,2.5-3.5L389.6,90.2z"/>
		<path class="st0" d="M461.2,66.8c5,0,9.2,0.7,12.7,2c3.5,1.2,6.5,3.2,8.2,5.7c2,2.5,3,5.5,3.2,8.9c0.2,3.5-0.5,7.2-2.2,11.7H465
			c-1.2,0-2.5-0.2-3.2-0.7s-1.2-1.5-0.7-3c0-0.2,0.2-0.5,0.2-0.7s0.2-0.5,0.2-0.7c0.2-0.2,0.2-0.5,0.2-1c0.5-1.5,0.5-2.7,0.5-3.7
			c-0.2-1-1-1.5-2.2-1.5c-1.7,0-3,0.5-4.2,1.5c-1,1-2,2.7-3,5.2c-0.5,1.5-0.2,2.7,0.7,4c1,1.2,2.5,2.5,4.5,4c1.7,1.5,3.7,3,6,4.7
			c2,1.7,4,3.7,5.5,6c1.5,2.2,2.5,5,2.7,8s-0.2,6.5-2,10.7c-1.2,3.2-2.7,6-4.5,8.2c-1.7,2.2-3.7,4-6.2,5.5s-5.2,2.2-8.4,3
			c-3.2,0.5-7,1-11.4,1c-5,0-9.2-0.7-12.7-2s-6.5-3.2-8.2-5.7c-2-2.5-3-5.5-3.2-8.9c-0.2-3.5,0.5-7.5,2.2-11.7h18.4
			c1.5,0,2.7,0.5,3.7,1.2s1,2.2,0,4.2c-0.2,0.2-0.2,0.5-0.2,0.7s0,0.5,0,0.5c-0.2,1.5-0.5,2.5-0.2,3.5s1,1.5,2.2,1.5
			c1.7,0,3-0.5,4.2-1.5c1-1,2-2.7,3-5.2c0.5-1.5,0.2-2.7-0.7-4c-1-1.2-2.5-2.7-4.5-4c-1.7-1.5-3.7-3-6-4.7c-2-1.7-4-3.7-5.5-6
			c-1.5-2.2-2.5-5-2.7-8s0.2-6.7,2-10.7c1.2-3.2,2.7-6,4.5-8.2s3.7-4,6.2-5.5s5.2-2.2,8.4-3C453,67.1,456.7,66.8,461.2,66.8z"/>
		<path class="st0" d="M586.4,68.1l-30.8,75.8h-22.1l15.2-37.5l-24.6,24.4c-1,1-1.7,1.2-3,1c-1-0.2-1.7-1-1.7-2l-5.5-23.1
			l-15.2,37.4h-22.1l30.8-75.8h12.7c1.7,0,3.2,0.5,4.2,1.5s1.7,2.5,2.2,4l6.7,24.1l27.2-25.8c1-1,2.2-1.7,3.7-2.5
			c1.5-0.7,3-1.2,4.2-1.2h18.1V68.1z"/>
		<path class="st0" d="M627.7,66.8c4.7,0,8.4,0.7,11.7,2c3.2,1.5,5.7,3.5,7.2,6c1.7,2.7,2.5,6,2.5,9.9s-1,8.2-3,13.2
			c-1.7,4.7-3.5,9.2-5.2,13.4c-1.7,4.2-3.5,8.2-5.2,12.2c-2,4.7-3.7,8.4-5.7,11.2c-2,2.7-4,5-6.2,6.5s-4.7,2.5-7.5,3
			c-2.7,0.5-6,0.7-9.7,0.7h-10.4c-3,0-5.7-0.5-8.4-1.2s-5-2.2-6.5-4.5c-1.7-2-2.5-4.7-2.7-8.2s0.7-7.7,2.7-12.7l4-9.7
			c1.2-3,2.5-6,3.7-9.4c1.5-3.5,2.7-7,4.2-10.2c1.2-3.2,3-6.2,5-8.9s4.2-5,6.7-7s5.5-3.5,8.4-4.5c3-1,6.5-1.5,10.2-1.5h4.2V66.8z
			 M624.7,90.2c0.5-1.2,0.5-2.2,0-3.2s-1.5-1.2-2.7-1.2c-1.7,0-3,0.2-3.7,1c-0.7,0.7-1.5,2-2.2,3.7l-12.9,32.1c-1,2.7-1.2,4.2-1,5
			c0.5,0.7,1.2,1.2,2.7,1.2s2.7-0.2,3.7-1c1-0.7,1.7-1.7,2.5-3.5L624.7,90.2z"/>
		<path class="st0" d="M717.7,85.5h-18.4l-23.9,58.4h-22.1l23.9-58.4h-17.9l7.2-17.6h58.4L717.7,85.5z"/>
		<path class="st0" d="M760.1,66.8c4.7,0,8.4,0.7,11.7,2c3.2,1.5,5.7,3.5,7.2,6c1.7,2.7,2.5,6,2.5,9.9s-1,8.2-3,13.2
			c-1.7,4.7-3.5,9.2-5.2,13.4c-1.7,4.2-3.5,8.2-5.2,12.2c-2,4.7-3.7,8.4-5.7,11.2c-2,2.7-4,5-6.2,6.5s-4.7,2.5-7.5,3
			c-2.7,0.5-6,0.7-9.7,0.7h-10.4c-3,0-5.7-0.5-8.4-1.2s-5-2.2-6.5-4.5c-1.7-2-2.5-4.7-2.7-8.2s0.7-7.7,2.7-12.7l4-9.7
			c1.2-3,2.5-6,3.7-9.4c1.5-3.5,2.7-7,4.2-10.2c1.2-3.2,3-6.2,5-8.9s4.2-5,6.7-7s5.5-3.5,8.4-4.5c3-1,6.5-1.5,10.2-1.5h4.2V66.8z
			 M756.9,90.2c0.5-1.2,0.5-2.2,0-3.2s-1.5-1.2-2.7-1.2c-1.7,0-3,0.2-3.7,1c-0.7,0.7-1.5,2-2.2,3.7l-12.9,32.1c-1,2.7-1.2,4.2-1,5
			c0.5,0.7,1.2,1.2,2.7,1.2s2.7-0.2,3.7-1s1.7-1.7,2.5-3.5L756.9,90.2z"/>
		<path class="st1" d="M850.1,85.5h-18.4l-23.9,58.4h-22.1l23.9-58.4h-17.9l7.2-17.6h58.4L850.1,85.5z"/>
		<path class="st1" d="M922.2,68.1L914.5,87H881l-4.2,9.7h26.8l-7.2,18.1h-26.8l-4,9.7h33.5l-8,19.6h-55.7l30.8-75.8h55.9v-0.2
			H922.2z"/>
		<path class="st1" d="M979.3,73.1c3.7,4.2,4.5,10.4,2.7,18.4c0,0.2,0,0.5-0.2,0.7c0,0.5-0.2,0.7-0.2,0.7c-0.5,1.7-1.5,2.7-3,3.5
			c-1.5,0.5-3,1-4.7,1h-18.4l3-7.2c0.5-1.2,0.5-2.2,0-3.2s-1.5-1.2-2.7-1.2c-1.7,0-3,0.2-3.7,1c-0.7,0.7-1.5,2-2.2,3.7L937,122.6
			c-1,2.7-1.2,4.2-1,5c0.5,0.7,1.2,1.2,2.7,1.2s2.7-0.2,3.7-1s1.7-1.7,2.5-3.5l3-7.5h18.9c1.5,0,2.7,0.2,3.7,1
			c0.7,0.5,1,1.7,0.2,3.2c-0.2,0.5-0.5,1-0.7,1.5s-0.5,1-0.7,1.5c-2,4.7-3.7,8.4-5.7,11.2c-2,2.7-4,5-6.2,6.5s-4.7,2.5-7.5,3
			c-2.7,0.5-6,0.7-9.7,0.7h-10.4c-3,0-5.7-0.5-8.4-1.2c-2.7-0.7-5-2.2-6.5-4.5c-1.7-2-2.5-4.7-2.7-8.2s0.7-7.7,2.7-12.7l4-9.7
			c1.2-3,2.5-6,3.7-9.4c1.5-3.5,2.7-7,4.2-10.2c1.2-3.2,3-6.2,5-8.9s4.2-5,6.7-7s5.5-3.5,8.4-4.5c3-1,6.5-1.5,10.2-1.5h4.5
			C969.6,66.8,975.6,68.8,979.3,73.1z"/>
		<path class="st1" d="M1066.3,68.1l-30.8,75.8h-22.1l10.7-26.3h-15.2l-10.7,26.3h-22.1l30.8-75.8h22.1l-11.7,28.6h15.2l11.7-28.6
			L1066.3,68.1L1066.3,68.1z"/>
	</g>
	<g>
		<polygon class="st1" points="103.9,9.8 -0.5,-0.2 84.6,36.5 103.9,212.4 123.3,36.5 208.4,-0.2 		"/>
		<g>
			<g>
				
					<linearGradient id="SVGID_1_" gradientUnits="userSpaceOnUse" x1="113.4" y1="541.9181" x2="167" y2="541.9181" gradientTransform="matrix(1 0 0 -1 0 663.3181)">
					<stop  offset="0" style="stop-color:#185BB8"/>
					<stop  offset="1" style="stop-color:#0068E8"/>
				</linearGradient>
				<polygon class="st2" points="113.4,193.8 167,95.6 167,49 				"/>
				
					<linearGradient id="SVGID_2_" gradientUnits="userSpaceOnUse" x1="154.4" y1="584.4181" x2="154.4" y2="650.0181" gradientTransform="matrix(1 0 0 -1 0 663.3181)">
					<stop  offset="0" style="stop-color:#185BB8"/>
					<stop  offset="1" style="stop-color:#0068E8"/>
				</linearGradient>
				<polygon class="st3" points="103.9,55 103.9,78.9 204.9,13.3 				"/>
				
					<linearGradient id="SVGID_3_" gradientUnits="userSpaceOnUse" x1="167" y1="608.8681" x2="204.9" y2="608.8681" gradientTransform="matrix(1 0 0 -1 0 663.3181)">
					<stop  offset="0" style="stop-color:#3B9AFF"/>
					<stop  offset="1" style="stop-color:#0068E8"/>
				</linearGradient>
				<polygon class="st4" points="167,49 167,95.6 204.9,13.3 				"/>
				
					<linearGradient id="SVGID_4_" gradientUnits="userSpaceOnUse" x1="154.4" y1="584.4181" x2="154.4" y2="650.0181" gradientTransform="matrix(1 0 0 -1 0 663.3181)">
					<stop  offset="0" style="stop-color:#3B9AFF"/>
					<stop  offset="1" style="stop-color:#0068E8"/>
				</linearGradient>
				<polygon class="st5" points="103.9,78.9 167,49 204.9,13.3 				"/>
				
					<linearGradient id="SVGID_5_" gradientUnits="userSpaceOnUse" x1="132.3" y1="599.1181" x2="132.3" y2="487.7181" gradientTransform="matrix(1 0 0 -1 0 663.3181)">
					<stop  offset="0" style="stop-color:#3B9AFF"/>
					<stop  offset="1" style="stop-color:#0068E8"/>
				</linearGradient>
				<polygon class="st6" points="113.1,175.6 151.5,64.2 127.2,89.1 				"/>
				
					<linearGradient id="SVGID_6_" gradientUnits="userSpaceOnUse" x1="106.3973" y1="559.9153" x2="117.7833" y2="579.6363" gradientTransform="matrix(1 0 0 -1 0 663.3181)">
					<stop  offset="0" style="stop-color:#3B9AFF"/>
					<stop  offset="1" style="stop-color:#0068E8"/>
				</linearGradient>
				<polygon class="st7" points="103.9,86 103.9,102 127.2,89.1 				"/>
				
					<linearGradient id="SVGID_7_" gradientUnits="userSpaceOnUse" x1="103.9" y1="586.6681" x2="151.4441" y2="586.6681" gradientTransform="matrix(1 0 0 -1 0 663.3181)">
					<stop  offset="0" style="stop-color:#185BB8"/>
					<stop  offset="1" style="stop-color:#0068E8"/>
				</linearGradient>
				<polygon class="st8" points="151.5,64.2 103.9,86 127.2,89.1 				"/>
			</g>
			<g>
				
					<linearGradient id="SVGID_8_" gradientUnits="userSpaceOnUse" x1="40.9" y1="541.9181" x2="94.5" y2="541.9181" gradientTransform="matrix(1 0 0 -1 0 663.3181)">
					<stop  offset="0" style="stop-color:#3B9AFF"/>
					<stop  offset="1" style="stop-color:#0068E8"/>
				</linearGradient>
				<polygon class="st9" points="94.5,193.8 40.9,95.6 40.9,49 				"/>
				
					<linearGradient id="SVGID_9_" gradientUnits="userSpaceOnUse" x1="3" y1="617.2181" x2="103.9" y2="617.2181" gradientTransform="matrix(1 0 0 -1 0 663.3181)">
					<stop  offset="0" style="stop-color:#3B9AFF"/>
					<stop  offset="1" style="stop-color:#0068E8"/>
				</linearGradient>
				<polygon class="st10" points="103.9,55 103.9,78.9 3,13.3 				"/>
				
					<linearGradient id="SVGID_10_" gradientUnits="userSpaceOnUse" x1="21.95" y1="650.0181" x2="21.95" y2="567.7181" gradientTransform="matrix(1 0 0 -1 0 663.3181)">
					<stop  offset="0" style="stop-color:#185BB8"/>
					<stop  offset="1" style="stop-color:#0068E8"/>
				</linearGradient>
				<polygon class="st11" points="40.9,49 40.9,95.6 3,13.3 				"/>
				
					<linearGradient id="SVGID_11_" gradientUnits="userSpaceOnUse" x1="80.2653" y1="570.7726" x2="26.6347" y2="663.6636" gradientTransform="matrix(1 0 0 -1 0 663.3181)">
					<stop  offset="0" style="stop-color:#3B9AFF"/>
					<stop  offset="1" style="stop-color:#0068E8"/>
				</linearGradient>
				<polygon class="st12" points="103.9,78.9 40.9,49 3,13.3 				"/>
				
					<linearGradient id="SVGID_12_" gradientUnits="userSpaceOnUse" x1="56.4" y1="543.4181" x2="94.8" y2="543.4181" gradientTransform="matrix(1 0 0 -1 0 663.3181)">
					<stop  offset="0" style="stop-color:#185BB8"/>
					<stop  offset="1" style="stop-color:#0068E8"/>
				</linearGradient>
				<polygon class="st13" points="94.8,175.6 56.4,64.2 80.7,89.1 				"/>
				
					<linearGradient id="SVGID_13_" gradientUnits="userSpaceOnUse" x1="80.6511" y1="569.3181" x2="103.9364" y2="569.3181" gradientTransform="matrix(1 0 0 -1 0 663.3181)">
					<stop  offset="0" style="stop-color:#3B9AFF"/>
					<stop  offset="1" style="stop-color:#0068E8"/>
				</linearGradient>
				<polygon class="st14" points="103.9,86 103.9,102 80.7,89.1 				"/>
				
					<linearGradient id="SVGID_14_" gradientUnits="userSpaceOnUse" x1="80.15" y1="599.0719" x2="80.15" y2="574.1719" gradientTransform="matrix(1 0 0 -1 0 663.3181)">
					<stop  offset="0" style="stop-color:#3B9AFF"/>
					<stop  offset="1" style="stop-color:#0068E8"/>
				</linearGradient>
				<polygon class="st15" points="56.4,64.2 103.9,86 80.7,89.1 				"/>
			</g>
		</g>
	</g>
</g>
</svg>
